<mxfile host="app.diagrams.net" modified="2024-01-18T20:41:01.710Z" agent="Mozilla/5.0 (Macintosh; Intel Mac OS X 10_15_7) AppleWebKit/537.36 (KHTML, like Gecko) Chrome/120.0.0.0 Safari/537.36" etag="nsf_2_nqEUpd5YKj_TmG" version="22.1.18" type="device">
  <diagram name="Page-1" id="Swo4AUx0Kg1jP1kED-If">
    <mxGraphModel dx="1187" dy="770" grid="1" gridSize="10" guides="1" tooltips="1" connect="1" arrows="1" fold="1" page="1" pageScale="1" pageWidth="850" pageHeight="1100" math="0" shadow="0">
      <root>
        <mxCell id="0" />
        <mxCell id="1" parent="0" />
        <mxCell id="Pg-r_GvVAQwdc8wZ_BDC-1" value="" style="rounded=0;whiteSpace=wrap;html=1;" vertex="1" parent="1">
          <mxGeometry x="270" y="300" width="60" height="60" as="geometry" />
        </mxCell>
        <mxCell id="Pg-r_GvVAQwdc8wZ_BDC-2" value="" style="rounded=0;whiteSpace=wrap;html=1;" vertex="1" parent="1">
          <mxGeometry x="270" y="360" width="60" height="60" as="geometry" />
        </mxCell>
        <mxCell id="Pg-r_GvVAQwdc8wZ_BDC-3" value="" style="rounded=0;whiteSpace=wrap;html=1;" vertex="1" parent="1">
          <mxGeometry x="270" y="420" width="60" height="60" as="geometry" />
        </mxCell>
        <mxCell id="Pg-r_GvVAQwdc8wZ_BDC-4" value="" style="rounded=0;whiteSpace=wrap;html=1;" vertex="1" parent="1">
          <mxGeometry x="270" y="480" width="60" height="60" as="geometry" />
        </mxCell>
        <mxCell id="Pg-r_GvVAQwdc8wZ_BDC-5" value="" style="rounded=0;whiteSpace=wrap;html=1;" vertex="1" parent="1">
          <mxGeometry x="270" y="540" width="60" height="60" as="geometry" />
        </mxCell>
        <mxCell id="Pg-r_GvVAQwdc8wZ_BDC-6" value="" style="rounded=0;whiteSpace=wrap;html=1;" vertex="1" parent="1">
          <mxGeometry x="270" y="600" width="60" height="60" as="geometry" />
        </mxCell>
        <mxCell id="Pg-r_GvVAQwdc8wZ_BDC-7" value="" style="rounded=0;whiteSpace=wrap;html=1;" vertex="1" parent="1">
          <mxGeometry x="270" y="660" width="60" height="60" as="geometry" />
        </mxCell>
        <mxCell id="Pg-r_GvVAQwdc8wZ_BDC-8" value="" style="rounded=0;whiteSpace=wrap;html=1;" vertex="1" parent="1">
          <mxGeometry x="270" y="720" width="60" height="60" as="geometry" />
        </mxCell>
        <mxCell id="Pg-r_GvVAQwdc8wZ_BDC-11" value="" style="rounded=0;whiteSpace=wrap;html=1;" vertex="1" parent="1">
          <mxGeometry x="520" y="150" width="60" height="60" as="geometry" />
        </mxCell>
        <mxCell id="Pg-r_GvVAQwdc8wZ_BDC-12" value="" style="rounded=0;whiteSpace=wrap;html=1;" vertex="1" parent="1">
          <mxGeometry x="520" y="210" width="60" height="60" as="geometry" />
        </mxCell>
        <mxCell id="Pg-r_GvVAQwdc8wZ_BDC-13" value="" style="rounded=0;whiteSpace=wrap;html=1;" vertex="1" parent="1">
          <mxGeometry x="520" y="270" width="60" height="60" as="geometry" />
        </mxCell>
        <mxCell id="Pg-r_GvVAQwdc8wZ_BDC-14" value="" style="rounded=0;whiteSpace=wrap;html=1;" vertex="1" parent="1">
          <mxGeometry x="520" y="330" width="60" height="60" as="geometry" />
        </mxCell>
        <mxCell id="Pg-r_GvVAQwdc8wZ_BDC-15" value="" style="rounded=0;whiteSpace=wrap;html=1;" vertex="1" parent="1">
          <mxGeometry x="520" y="390" width="60" height="60" as="geometry" />
        </mxCell>
        <mxCell id="Pg-r_GvVAQwdc8wZ_BDC-16" value="" style="rounded=0;whiteSpace=wrap;html=1;" vertex="1" parent="1">
          <mxGeometry x="520" y="450" width="60" height="60" as="geometry" />
        </mxCell>
        <mxCell id="Pg-r_GvVAQwdc8wZ_BDC-17" value="" style="rounded=0;whiteSpace=wrap;html=1;" vertex="1" parent="1">
          <mxGeometry x="520" y="510" width="60" height="60" as="geometry" />
        </mxCell>
        <mxCell id="Pg-r_GvVAQwdc8wZ_BDC-18" value="" style="rounded=0;whiteSpace=wrap;html=1;" vertex="1" parent="1">
          <mxGeometry x="520" y="570" width="60" height="60" as="geometry" />
        </mxCell>
        <mxCell id="Pg-r_GvVAQwdc8wZ_BDC-19" value="" style="strokeWidth=2;html=1;shape=mxgraph.flowchart.annotation_2;align=left;labelPosition=right;pointerEvents=1;" vertex="1" parent="1">
          <mxGeometry x="330" y="180" width="190" height="420" as="geometry" />
        </mxCell>
        <mxCell id="Pg-r_GvVAQwdc8wZ_BDC-20" value="" style="rounded=0;whiteSpace=wrap;html=1;" vertex="1" parent="1">
          <mxGeometry x="130" y="70" width="60" height="60" as="geometry" />
        </mxCell>
        <mxCell id="Pg-r_GvVAQwdc8wZ_BDC-21" value="Node" style="text;html=1;align=center;verticalAlign=middle;resizable=0;points=[];autosize=1;strokeColor=none;fillColor=none;" vertex="1" parent="1">
          <mxGeometry x="260" y="85" width="50" height="30" as="geometry" />
        </mxCell>
        <mxCell id="Pg-r_GvVAQwdc8wZ_BDC-23" value="" style="endArrow=none;html=1;rounded=0;exitX=1;exitY=0.5;exitDx=0;exitDy=0;" edge="1" parent="1" source="Pg-r_GvVAQwdc8wZ_BDC-20" target="Pg-r_GvVAQwdc8wZ_BDC-21">
          <mxGeometry width="50" height="50" relative="1" as="geometry">
            <mxPoint x="400" y="420" as="sourcePoint" />
            <mxPoint x="450" y="370" as="targetPoint" />
          </mxGeometry>
        </mxCell>
      </root>
    </mxGraphModel>
  </diagram>
</mxfile>
